<?xml version="1.0" encoding="utf-8"?>
<!-- Generator: Adobe Illustrator 25.0.0, SVG Export Plug-In . SVG Version: 6.00 Build 0)  -->
<svg version="1.1" id="Layer_1" xmlns="http://www.w3.org/2000/svg" xmlns:xlink="http://www.w3.org/1999/xlink" x="0px" y="0px"
	 viewBox="0 0 169.1 66.7" style="enable-background:new 0 0 169.1 66.7;" xml:space="preserve">
<style type="text/css">
	.st0{fill:#00A77F;}
</style>
<g>
	<path class="st0" d="M169,33c0-0.2,0-0.5,0-0.7c0-0.3,0-0.6,0-0.9c0-0.1,0-0.3,0-0.4c0-0.1,0-0.2,0-0.3c0-0.2,0-0.4-0.1-0.6
		c0-0.3-0.1-0.6-0.1-0.9c0-0.2-0.1-0.4-0.1-0.6c0-0.3-0.1-0.6-0.1-0.9c0-0.2-0.1-0.4-0.1-0.6c-0.1-0.3-0.1-0.5-0.2-0.8
		c-0.1-0.3-0.1-0.5-0.2-0.8c0-0.2-0.1-0.4-0.1-0.6c-0.1-0.3-0.2-0.7-0.3-1c0-0.1-0.1-0.2-0.1-0.3c-1.3-4.3-3.5-8.2-6.4-11.6l0,0
		c-5.6-6.7-13.8-11.1-23-11.8c-7.9-0.6-15.2,1.6-21.2,5.7c-1.5,1-1.7,3.1-0.4,4.4l33.9,33.9c0.4,0.5,0.7,1.1,0.7,1.9
		c0,1.6-1.3,2.8-2.8,2.8c-0.8,0-1.4-0.3-1.9-0.8l0,0c0.1,0-34.8-34.8-36.2-36.2c-1.8-1.9-3.3-3.2-5.1-4.7c0,0-0.1-0.1-0.1-0.1
		c-0.3-0.2-0.6-0.5-1-0.7c-0.1-0.1-0.1-0.1-0.2-0.2c-0.3-0.2-0.6-0.4-1-0.7c-0.1-0.1-0.2-0.1-0.3-0.2c-0.3-0.2-0.7-0.4-1-0.6
		c-0.1-0.1-0.2-0.1-0.3-0.1c-0.3-0.2-0.7-0.4-1-0.6c-0.1,0-0.1-0.1-0.2-0.1c-1.1-0.6-2.3-1.1-3.5-1.6c-0.1,0-0.2-0.1-0.3-0.1
		c-0.3-0.1-0.6-0.2-0.9-0.3c-0.2-0.1-0.4-0.1-0.6-0.2c-0.3-0.1-0.5-0.2-0.8-0.2c-0.2-0.1-0.5-0.1-0.7-0.2C92.9,1.1,92.6,1,92.4,1
		c-0.3-0.1-0.5-0.1-0.8-0.2c-0.2-0.1-0.5-0.1-0.7-0.2c-0.3-0.1-0.6-0.1-0.8-0.2c-0.2,0-0.5-0.1-0.7-0.1c-0.3,0-0.6-0.1-0.9-0.1
		c-0.2,0-0.4-0.1-0.7-0.1c-0.3,0-0.7-0.1-1.1-0.1c-0.2,0-0.4,0-0.6,0c-0.5,0-1.1,0-1.6,0s-1.1,0-1.6,0c-0.2,0-0.4,0-0.6,0
		c-0.4,0-0.7,0-1.1,0.1c-0.2,0-0.4,0-0.7,0.1c-0.3,0-0.6,0.1-0.9,0.1c-0.2,0-0.5,0.1-0.7,0.1c-0.3,0-0.6,0.1-0.8,0.2
		c-0.2,0-0.5,0.1-0.7,0.2c-0.3,0.1-0.5,0.1-0.8,0.2c-0.3,0.1-0.5,0.1-0.8,0.2c-0.2,0.1-0.5,0.1-0.7,0.2c-0.3,0.1-0.5,0.2-0.8,0.2
		c-0.2,0.1-0.4,0.1-0.6,0.2c-0.3,0.1-0.6,0.2-0.9,0.3c-0.1,0-0.2,0.1-0.3,0.1c-1.2,0.5-2.4,1-3.5,1.6c-0.1,0-0.1,0.1-0.2,0.1
		c-0.3,0.2-0.7,0.4-1,0.6c-0.1,0-0.2,0.1-0.3,0.1c-0.3,0.2-0.7,0.4-1,0.6c-0.1,0.1-0.2,0.1-0.3,0.2c-0.3,0.2-0.7,0.4-1,0.7
		c-0.1,0.1-0.1,0.1-0.2,0.2c-0.3,0.2-0.7,0.5-1,0.7c0,0-0.1,0.1-0.1,0.1c-1.9,1.5-3.6,3.1-5.1,5c-1.9-2.3-4.1-4.3-6.6-6
		c-0.1-0.1-0.2-0.2-0.3-0.2c-2.5-1.7-5.1-3-8-4c0,0,0,0,0,0c-0.5-0.2-1-0.3-1.5-0.5c0,0-0.1,0-0.1,0c-0.5-0.1-1.1-0.3-1.6-0.4
		c0,0-0.1,0-0.1,0c-0.5-0.1-0.9-0.2-1.4-0.3c-0.2,0-0.4-0.1-0.7-0.1c-0.3,0-0.6-0.1-0.9-0.1c-0.2,0-0.5-0.1-0.7-0.1
		c-0.3,0-0.6-0.1-0.9-0.1c-0.1,0-0.3,0-0.4,0c-0.1,0-0.2,0-0.3,0c-0.2,0-0.5,0-0.7,0c-0.2,0-0.5,0-0.7,0c-0.2,0-0.5,0-0.7,0
		s-0.5,0-0.7,0c-0.2,0-0.5,0-0.7,0c-0.2,0-0.5,0-0.7,0c-0.1,0-0.2,0-0.3,0c-0.2,0-0.3,0-0.5,0c-0.2,0-0.5,0-0.7,0.1
		c-0.3,0-0.5,0.1-0.8,0.1c-0.2,0-0.4,0.1-0.6,0.1c-0.3,0-0.5,0.1-0.8,0.1c-0.2,0-0.5,0.1-0.7,0.1c-0.2,0-0.5,0.1-0.7,0.1
		c-0.3,0.1-0.6,0.1-0.8,0.2c-0.2,0-0.3,0.1-0.5,0.1c-0.4,0.1-0.7,0.2-1.1,0.3c-0.1,0-0.2,0-0.2,0.1c-3.2,1-6.2,2.5-8.9,4.3
		c-0.1,0-0.1,0.1-0.2,0.2c-3.3,2.3-6.1,5.1-8.4,8.4c-0.1,0.1-0.1,0.1-0.2,0.2c-1.8,2.7-3.3,5.7-4.3,8.9c0,0.1,0,0.2-0.1,0.2
		c-0.1,0.4-0.2,0.7-0.3,1.1c0,0.2-0.1,0.3-0.1,0.5c-0.1,0.3-0.1,0.6-0.2,0.8c-0.1,0.2-0.1,0.5-0.1,0.7c0,0.2-0.1,0.5-0.1,0.7
		c0,0.3-0.1,0.5-0.1,0.8c0,0.2-0.1,0.4-0.1,0.6c0,0.3-0.1,0.5-0.1,0.8c0,0.2,0,0.5-0.1,0.7c0,0.2,0,0.3,0,0.5c0,0.1,0,0.2,0,0.3
		c0,0.2,0,0.5,0,0.7c0,0.2,0,0.5,0,0.7c0,0.2,0,0.5,0,0.7s0,0.5,0,0.7c0,0.2,0,0.5,0,0.7c0,0.2,0,0.5,0,0.7c0,0.1,0,0.2,0,0.3
		c0,0.2,0,0.3,0,0.5c0,0.2,0,0.5,0.1,0.7c0,0.3,0.1,0.5,0.1,0.8c0,0.2,0.1,0.4,0.1,0.6c0,0.3,0.1,0.5,0.1,0.8c0,0.2,0.1,0.5,0.1,0.7
		c0,0.2,0.1,0.5,0.1,0.7c0.1,0.3,0.1,0.6,0.2,0.8c0,0.2,0.1,0.3,0.1,0.5c0.1,0.4,0.2,0.7,0.3,1.1c0,0.1,0,0.2,0.1,0.2
		c1,3.2,2.5,6.2,4.3,8.9c0,0.1,0.1,0.1,0.2,0.2c2.3,3.3,5.1,6.1,8.4,8.4c0.1,0.1,0.1,0.1,0.2,0.2c2.7,1.8,5.7,3.3,8.9,4.3
		c0.1,0,0.2,0,0.2,0.1c0.4,0.1,0.7,0.2,1.1,0.3c0.2,0,0.3,0.1,0.5,0.1c0.3,0.1,0.6,0.1,0.8,0.2c0.2,0.1,0.5,0.1,0.7,0.1
		c0.2,0,0.5,0.1,0.7,0.1c0.3,0,0.5,0.1,0.8,0.1c0.2,0,0.4,0.1,0.6,0.1c0.3,0,0.5,0.1,0.8,0.1c0.2,0,0.5,0,0.7,0.1c0.2,0,0.3,0,0.5,0
		c0.1,0,0.2,0,0.3,0c0.2,0,0.5,0,0.7,0c0.2,0,0.5,0,0.7,0c0.2,0,0.5,0,0.7,0s0.5,0,0.7,0c0.2,0,0.5,0,0.7,0c0.2,0,0.5,0,0.7,0
		c0.1,0,0.2,0,0.3,0c0.2,0,0.3,0,0.5,0c0.2,0,0.5,0,0.7-0.1c0.3,0,0.5-0.1,0.8-0.1c0.2,0,0.4-0.1,0.6-0.1c0.3,0,0.5-0.1,0.8-0.1
		c0.2,0,0.5-0.1,0.7-0.1c0.2,0,0.5-0.1,0.7-0.1c0.3-0.1,0.6-0.1,0.8-0.2c0.2,0,0.3-0.1,0.5-0.1c0.4-0.1,0.7-0.2,1.1-0.3
		c0.1,0,0.2,0,0.2-0.1c3.2-1,6.2-2.5,8.9-4.3c0.1,0,0.1-0.1,0.2-0.2c2.4-1.7,4.6-3.7,6.5-5.9l0.1,0.1c6.6,6.1,14,11,23.2,11.7
		c7.9,0.6,15.2-1.6,21.2-5.7c1.5-1,1.7-3.1,0.4-4.4L69.5,22.3c-0.4-0.5-0.7-1.1-0.7-1.9c0-1.6,1.3-2.8,2.8-2.8c0.8,0,1.5,0.3,2,0.9
		l0,0c0,0,36.6,36.7,36.6,36.6c1.3,1.5,2.5,2.4,4,3.7l0,0c3.4,2.8,7.3,5,11.6,6.4c0.1,0,0.2,0.1,0.3,0.1c0.3,0.1,0.7,0.2,1,0.3
		c0.2,0.1,0.4,0.1,0.6,0.1c0.3,0.1,0.5,0.1,0.8,0.2c0.3,0.1,0.5,0.1,0.8,0.2c0.2,0,0.4,0.1,0.6,0.1c0.3,0.1,0.6,0.1,0.9,0.1
		c0.2,0,0.4,0.1,0.6,0.1c0.3,0,0.6,0.1,0.9,0.1c0.2,0,0.4,0,0.6,0.1c0.1,0,0.2,0,0.3,0c0.1,0,0.3,0,0.4,0c0.3,0,0.6,0,0.9,0
		c0.2,0,0.5,0,0.7,0c0.1,0,0.3,0,0.4,0c0.2,0,0.3,0,0.5,0c0.3,0,0.6,0,0.9,0c0.3,0,0.5,0,0.8,0c0.3,0,0.6,0,0.9-0.1
		c0.3,0,0.6-0.1,0.8-0.1c0.3,0,0.5-0.1,0.8-0.1c0.3,0,0.6-0.1,0.8-0.1c0.3,0,0.5-0.1,0.8-0.1c0.3-0.1,0.6-0.1,0.9-0.2
		c0.2-0.1,0.5-0.1,0.7-0.2c0.3-0.1,0.6-0.1,0.9-0.2c0.2-0.1,0.4-0.1,0.6-0.2c0.3-0.1,0.6-0.2,0.9-0.3c0.2-0.1,0.4-0.1,0.6-0.2
		c0.3-0.1,0.7-0.2,1-0.4c0.2-0.1,0.3-0.1,0.5-0.2c0.3-0.1,0.7-0.3,1-0.4c0.1-0.1,0.3-0.1,0.4-0.2c0.4-0.2,0.7-0.3,1.1-0.5
		c0.1-0.1,0.2-0.1,0.3-0.2c0.4-0.2,0.7-0.4,1.1-0.6c0.1,0,0.2-0.1,0.3-0.1c0.4-0.2,0.8-0.4,1.1-0.7c0.1,0,0.1-0.1,0.2-0.1
		c0.4-0.2,0.8-0.5,1.2-0.8c0,0,0.1-0.1,0.1-0.1c0.4-0.3,0.8-0.6,1.2-0.9c0,0,0,0,0,0c2.3-1.8,4.3-3.8,6.1-6.1c0,0,0,0,0,0
		c0.3-0.4,0.6-0.8,0.9-1.2c0,0,0.1-0.1,0.1-0.1c0.3-0.4,0.5-0.8,0.8-1.2c0-0.1,0.1-0.1,0.1-0.2c0.2-0.4,0.5-0.7,0.7-1.1
		c0-0.1,0.1-0.2,0.1-0.3c0.2-0.4,0.4-0.7,0.6-1.1c0.1-0.1,0.1-0.2,0.2-0.3c0.2-0.3,0.3-0.7,0.5-1.1c0.1-0.1,0.1-0.3,0.2-0.4
		c0.1-0.3,0.3-0.7,0.4-1c0.1-0.2,0.1-0.3,0.2-0.5c0.1-0.3,0.2-0.6,0.4-1c0.1-0.2,0.1-0.4,0.2-0.6c0.1-0.3,0.2-0.6,0.3-0.9
		c0.1-0.2,0.1-0.4,0.2-0.6c0.1-0.3,0.2-0.6,0.2-0.9c0.1-0.2,0.1-0.5,0.2-0.7c0.1-0.3,0.1-0.6,0.2-0.9c0-0.3,0.1-0.5,0.1-0.8
		c0-0.3,0.1-0.6,0.1-0.8c0-0.3,0.1-0.5,0.1-0.8c0-0.3,0.1-0.6,0.1-0.8c0-0.3,0-0.6,0.1-0.8c0-0.3,0-0.5,0-0.8c0-0.3,0-0.6,0-0.9
		c0-0.2,0-0.3,0-0.5C169.1,33.2,169,33.1,169,33z M51.5,51.5c-1.1,1.1-2.9,1.1-4,0L15.2,19.2c-1.1-1.1-1.1-2.9,0-4s2.9-1.1,4,0
		l32.3,32.3C52.6,48.6,52.6,50.4,51.5,51.5z"/>
</g>
</svg>
