<svg version="1.2" xmlns="http://www.w3.org/2000/svg" viewBox="41 234 184 82" width="184" height="82">
	<title>logo-01-01</title>
	<style>
		.s0 { fill: none;stroke: #00a77f;stroke-miterlimit:10 } 
		.s1 { fill: #00a77f } 
		.s2 { fill: none;stroke: #54b07f;stroke-miterlimit:10 } 
	</style>
	<g id="Layer 1">
		<g id="&lt;Group&gt;">
			<g id="&lt;Group&gt;">
			</g>
			<g id="&lt;Group&gt;">
			</g>
		</g>
		<g id="&lt;Group&gt;">
			<g id="&lt;Group&gt;">
			</g>
			<g id="&lt;Group&gt;">
				<g id="Folder 1">
					<g id="Folder 2">
					</g>
				</g>
			</g>
		</g>
		<g id="&lt;Group&gt;">
			<g id="&lt;Group&gt;">
			</g>
			<g id="&lt;Group&gt;">
			</g>
		</g>
		<g id="&lt;Group&gt;">
		</g>
		<g id="&lt;Group&gt;">
		</g>
		<g id="&lt;Group&gt;">
		</g>
		<path id="&lt;Path&gt;" class="s0" d="m100.7 292.9c-1.1 1.1-2.9 1.1-4 0l-32.3-32.3c-1.1-1.1-1.1-2.9 0-3.9 1.1-1.1 2.9-1.1 4 0l32.3 32.3c1.1 1.1 1.1 2.8 0 3.9z"/>
		<g id="&lt;Group&gt;">
			<path id="&lt;Compound Path&gt;" class="s1" d="m82.7 241.5q-0.1 0-0.2 0 0 0-0.1 0-0.3 0-0.6 0-0.4 0-0.7 0-0.4 0-0.7 0-0.2 0-0.3 0-0.2 0.1-0.5 0.1-0.3 0-0.7 0-0.4 0.1-0.8 0.2-0.3 0-0.6 0-0.4 0.1-0.8 0.2-0.4 0-0.7 0.1-0.4 0.1-0.7 0.1-0.4 0.1-0.8 0.2-0.3 0.1-0.5 0.2-0.6 0.1-1.1 0.3-0.1 0-0.3 0.1c-3.2 0.9-6.1 2.4-8.8 4.3q-0.1 0-0.2 0.1c-3.3 2.3-6.1 5.1-8.4 8.4q-0.1 0.1-0.2 0.2c-1.8 2.7-3.3 5.7-4.3 8.9q0 0.1 0 0.2-0.2 0.5-0.4 1.1 0 0.2-0.1 0.5-0.1 0.4-0.2 0.8-0.1 0.4-0.1 0.7-0.1 0.4-0.2 0.7 0 0.4-0.1 0.8 0 0.3-0.1 0.6 0 0.4-0.1 0.9 0 0.3 0 0.6-0.1 0.3-0.1 0.6 0 0.1 0 0.2 0 0.4 0 0.7-0.1 0.4-0.1 0.7 0 0.4 0 0.8 0 0.3 0 0.7 0 0.4 0.1 0.7 0 0.4 0 0.7 0 0.2 0 0.3 0 0.2 0.1 0.5 0 0.3 0 0.7 0.1 0.4 0.1 0.8 0.1 0.3 0.1 0.6 0.1 0.4 0.1 0.8 0.1 0.4 0.2 0.7 0 0.4 0.1 0.7 0.1 0.4 0.2 0.8 0.1 0.3 0.1 0.5 0.2 0.6 0.4 1.1 0 0.2 0 0.3c1 3.2 2.5 6.2 4.3 8.9q0.1 0.1 0.2 0.1c2.3 3.3 5.1 6.1 8.4 8.4q0.1 0.1 0.2 0.2c2.7 1.8 5.6 3.3 8.8 4.3q0.2 0 0.3 0.1 0.5 0.1 1.1 0.3 0.2 0 0.5 0.1 0.4 0.1 0.8 0.2 0.3 0.1 0.7 0.1 0.3 0.1 0.7 0.2 0.4 0 0.8 0.1 0.3 0 0.6 0.1 0.4 0 0.8 0.1 0.4 0 0.7 0.1 0.3 0 0.5 0 0.1 0 0.3 0 0.3 0 0.7 0.1 0.3 0 0.7 0 0.3 0 0.6 0 0.1 0 0.1 0 0.1 0 0.2 0 0.3 0 0.6 0 0.3 0 0.7 0 0.4-0.1 0.7-0.1 0.1 0 0.3 0 0.2 0 0.5 0 0.3-0.1 0.7-0.1 0.4-0.1 0.8-0.1 0.3-0.1 0.6-0.1 0.4-0.1 0.8-0.1 0.3-0.1 0.7-0.2 0.3 0 0.7-0.1 0.4-0.1 0.8-0.2 0.3-0.1 0.5-0.1 0.6-0.2 1.1-0.3 0.1-0.1 0.2-0.1c3.2-1 6.2-2.5 8.9-4.3q0.1-0.1 0.2-0.2c2.4-1.7 4.6-3.6 6.5-5.9l0.1 0.2c6.6 6.1 14 11 23.2 11.6q1.2 0.1 2.4 0.1c7 0 13.5-2.1 18.8-5.8 1.5-1 1.7-3.1 0.4-4.3l-34.2-34.2c-0.4-0.5-0.7-1.2-0.7-1.9 0-1.5 1.3-2.8 2.8-2.8 0.8 0 1.5 0.3 2 0.9 0 0 36.5 36.6 36.7 36.6q0 0 0 0c1.2 1.5 2.5 2.4 4 3.6v0.1c3.3 2.8 7.2 5 11.5 6.3q0.2 0.1 0.4 0.1 0.5 0.2 1 0.3 0.3 0.1 0.6 0.2 0.4 0.1 0.8 0.1 0.4 0.1 0.7 0.2 0.4 0.1 0.7 0.1 0.4 0.1 0.9 0.2 0.3 0 0.6 0.1 0.4 0 0.9 0.1 0.3 0 0.6 0 0.2 0 0.3 0 0.3 0.1 0.5 0.1 0.4 0 0.9 0 0.3 0 0.7 0 0.2 0 0.4 0 0.2 0 0.4 0 0.5 0 0.9 0 0.4 0 0.8 0 0.5-0.1 0.9-0.1 0.4 0 0.8-0.1 0.4 0 0.8-0.1 0.4-0.1 0.9-0.1 0.3-0.1 0.7-0.2 0.5 0 0.9-0.1 0.4-0.1 0.7-0.2 0.5-0.1 0.9-0.2 0.3-0.1 0.6-0.2 0.5-0.2 1-0.3 0.3-0.1 0.6-0.2 0.4-0.2 0.9-0.4 0.3 0 0.5-0.1 0.5-0.2 1-0.5 0.2-0.1 0.4-0.2 0.6-0.2 1.1-0.5 0.2 0 0.3-0.1 0.6-0.3 1.1-0.6 0.1-0.1 0.3-0.2 0.5-0.3 1.1-0.6 0.1-0.1 0.2-0.1 0.6-0.4 1.1-0.8 0.1 0 0.1-0.1 0.6-0.4 1.2-0.8 0-0.1 0.1-0.1c2.3-1.7 4.3-3.8 6.1-6.1q0 0 0 0 0.5-0.6 0.9-1.2 0-0.1 0-0.1 0.4-0.6 0.8-1.2 0.1-0.1 0.1-0.1 0.4-0.6 0.7-1.2 0.1-0.1 0.1-0.2 0.3-0.6 0.6-1.1 0.1-0.2 0.2-0.3 0.3-0.6 0.5-1.1 0.1-0.2 0.2-0.4 0.2-0.5 0.4-1 0.1-0.3 0.2-0.5 0.2-0.5 0.4-1 0-0.3 0.1-0.6 0.2-0.4 0.3-0.9 0.1-0.3 0.2-0.6 0.1-0.5 0.2-0.9 0.1-0.4 0.2-0.8 0.1-0.4 0.2-0.8 0.1-0.4 0.1-0.8 0.1-0.4 0.1-0.8 0.1-0.4 0.2-0.8 0-0.5 0-0.9 0.1-0.4 0.1-0.8 0-0.4 0-0.8 0.1-0.5 0.1-0.9 0-0.3 0-0.5 0-0.2 0-0.4 0-0.3 0-0.7-0.1-0.4-0.1-0.9 0-0.2 0-0.4 0-0.2 0-0.4-0.1-0.3-0.1-0.6 0-0.4-0.1-0.9 0-0.3-0.1-0.6 0-0.4-0.1-0.9-0.1-0.3-0.1-0.6-0.1-0.4-0.2-0.8-0.1-0.4-0.2-0.8-0.1-0.3-0.1-0.6-0.2-0.5-0.3-1-0.1-0.2-0.1-0.3c-1.4-4.3-3.5-8.2-6.4-11.6-5.6-6.6-13.8-11.1-23-11.7q-1.2-0.1-2.4-0.1c-7 0-13.5 2.1-18.8 5.8-1.5 1-1.7 3.1-0.4 4.4l33.8 33.8c0.5 0.5 0.8 1.2 0.8 1.9 0 1.5-1.3 2.8-2.9 2.8-0.7 0-1.4-0.3-1.9-0.8q0 0 0 0 0 0 0 0c-0.1 0-34.8-34.7-36.3-36.2-1.7-1.8-3.2-3.2-5.1-4.7q-0.1 0-0.1-0.1-0.5-0.3-1-0.7-0.1-0.1-0.2-0.2-0.5-0.3-1-0.6-0.1-0.1-0.3-0.2-0.5-0.3-1-0.6-0.1-0.1-0.2-0.1-0.5-0.3-1.1-0.6-0.1-0.1-0.1-0.1-1.8-0.9-3.6-1.6-0.1-0.1-0.3-0.1-0.4-0.2-0.8-0.3-0.3-0.1-0.6-0.2-0.4-0.2-0.8-0.3-0.4-0.1-0.7-0.2-0.4-0.1-0.8-0.2-0.4-0.1-0.8-0.1-0.3-0.1-0.7-0.2-0.4-0.1-0.9-0.1-0.3-0.1-0.7-0.2-0.4 0-0.9-0.1-0.3 0-0.6 0-0.6-0.1-1.1-0.1-0.3 0-0.5-0.1-0.9 0-1.7 0-0.8 0-1.6 0-0.3 0.1-0.5 0.1-0.6 0-1.1 0.1-0.3 0-0.7 0-0.4 0.1-0.9 0.1-0.3 0.1-0.7 0.2-0.4 0-0.8 0.1-0.4 0.1-0.8 0.2-0.4 0-0.7 0.1-0.4 0.1-0.8 0.2-0.4 0.1-0.7 0.2-0.4 0.1-0.8 0.3-0.3 0.1-0.6 0.2-0.5 0.1-0.9 0.3-0.1 0-0.2 0.1-1.9 0.7-3.6 1.6-0.1 0-0.2 0.1-0.5 0.3-1 0.6-0.1 0-0.3 0.1-0.5 0.3-1 0.6-0.1 0.1-0.2 0.2-0.5 0.3-1 0.6-0.1 0.1-0.2 0.2-0.5 0.4-1 0.7-0.1 0.1-0.1 0.1-2.9 2.3-5.2 5c-1.9-2.3-4.1-4.3-6.5-6q-0.1-0.1-0.3-0.2c-2.4-1.7-5.1-3.1-8-4.1q0 0 0 0-0.8-0.2-1.5-0.4-0.1-0.1-0.1-0.1-0.8-0.2-1.6-0.4-0.1 0-0.2 0-0.6-0.2-1.3-0.3-0.4-0.1-0.7-0.1-0.4-0.1-0.9-0.1-0.3-0.1-0.7-0.1-0.5-0.1-0.9-0.1-0.2 0-0.4-0.1-0.2 0-0.3 0-0.3 0-0.7 0-0.4 0-0.7 0-0.3 0-0.6 0zm0 1q0.3 0 0.5 0 0.4 0 0.7 0h0.1q0.3 0 0.6 0h0.2 0.1q0.1 0 0.2 0.1 0.1 0 0.2 0 0.4 0 0.9 0.1 0.3 0 0.7 0 0.4 0.1 0.8 0.2h0.2q0.3 0 0.5 0.1 0.7 0.1 1.3 0.3h0.1q0.8 0.1 1.6 0.4h0.1q0.7 0.2 1.5 0.5c2.8 0.9 5.4 2.2 7.8 3.9q0 0 0 0l0.1 0.1 0.1 0.1c2.4 1.7 4.5 3.6 6.4 5.8l0.7 1 0.8-1c1.5-1.8 3.2-3.4 5-4.8l0.1-0.1q0.5-0.3 1-0.7l0.2-0.1q0.4-0.4 0.9-0.7l0.2-0.1h0.1q0.4-0.3 0.9-0.6l0.2-0.1 0.1-0.1q0.5-0.3 1-0.5l0.1-0.1h0.1q1.6-0.9 3.4-1.6h0.1l0.2-0.1q0.3-0.1 0.7-0.2l0.1-0.1h0.2q0.2-0.1 0.4-0.2 0.3-0.1 0.7-0.2h0.1q0.3-0.1 0.7-0.2 0.3-0.1 0.7-0.2 0.4-0.1 0.8-0.2 0.3 0 0.7-0.1 0.4-0.1 0.8-0.2 0.3 0 0.7-0.1 0.4 0 0.9-0.1h0.1q0.3 0 0.5-0.1 0.5 0 1 0h0.2q0.2-0.1 0.4-0.1 0.8 0 1.5 0 0.8 0 1.6 0 0.2 0 0.3 0.1h0.2q0.6 0 1.1 0 0.2 0.1 0.4 0.1h0.2q0.4 0.1 0.9 0.1 0.3 0.1 0.7 0.1 0.4 0.1 0.8 0.2 0.4 0.1 0.7 0.1 0.4 0.1 0.8 0.2 0.3 0.1 0.7 0.2 0.3 0.1 0.7 0.2 0.4 0.1 0.8 0.2 0.2 0.1 0.4 0.2h0.1l0.2 0.1q0.3 0.1 0.7 0.2l0.1 0.1h0.1q1.8 0.7 3.5 1.6h0.1l0.1 0.1q0.5 0.2 1 0.5l0.1 0.1 0.1 0.1q0.5 0.3 1 0.6l0.2 0.1q0.5 0.3 1 0.7l0.2 0.1q0.5 0.4 0.9 0.7l0.1 0.1h0.1c1.9 1.5 3.3 2.8 5 4.6 1.4 1.4 36 35.9 36.3 36.2l0.7 0.7 0.1-0.1q0.9 0.5 1.8 0.5c2.1 0 3.9-1.7 3.9-3.8 0-0.9-0.4-1.8-1-2.5v-0.1h-0.1l-33.8-33.9c-0.4-0.3-0.6-0.9-0.6-1.4 0.1-0.6 0.4-1.1 0.8-1.4 5.4-3.7 11.7-5.6 18.3-5.6q1.1 0 2.3 0.1c8.6 0.6 16.7 4.7 22.3 11.4l0.5 0.6c2.6 3.1 4.5 6.7 5.7 10.6l0.1 0.2v0.1q0.2 0.5 0.3 1 0.1 0.2 0.1 0.4v0.2q0.1 0.3 0.2 0.7 0.1 0.4 0.2 0.8 0 0.3 0.1 0.6 0.1 0.4 0.1 0.9 0.1 0.3 0.1 0.5 0.1 0.5 0.1 0.9 0 0.3 0.1 0.6v0.2q0 0.1 0 0.2 0 0.1 0 0.2v0.2q0 0.4 0.1 0.9 0 0.3 0 0.6v0.2q0 0.1 0 0.2 0 0.1 0 0.2v0.3q0 0.4-0.1 0.8 0 0.4 0 0.8 0 0.4-0.1 0.8 0 0.4 0 0.8-0.1 0.4-0.1 0.8-0.1 0.4-0.2 0.9 0 0.3-0.1 0.7-0.1 0.4-0.2 0.8 0 0.4-0.1 0.7-0.1 0.5-0.3 0.9 0 0.3-0.1 0.6-0.2 0.5-0.3 0.9-0.1 0.3-0.2 0.6-0.2 0.5-0.3 0.9-0.1 0.2-0.2 0.5-0.2 0.5-0.4 1-0.1 0.1-0.2 0.3v0.1q-0.2 0.5-0.5 1l-0.1 0.2-0.1 0.1q-0.2 0.6-0.5 1.1l-0.1 0.1-0.1 0.1q-0.3 0.6-0.6 1.1l-0.1 0.1v0.1q-0.4 0.6-0.8 1.1v0.1q-0.5 0.6-0.9 1.2c-1.7 2.2-3.7 4.2-5.9 5.9l0.6 0.8-0.7-0.7q-0.6 0.4-1.1 0.8h-0.1v0.1q-0.6 0.4-1.2 0.7v0.1h-0.1q-0.6 0.4-1.1 0.7h-0.1l-0.2 0.1q-0.5 0.3-1 0.6h-0.1l-0.2 0.2q-0.6 0.2-1.1 0.4l-0.1 0.1q-0.1 0-0.3 0.1-0.5 0.2-1 0.4-0.2 0.1-0.4 0.2-0.5 0.2-1 0.4-0.3 0.1-0.5 0.1-0.5 0.2-0.9 0.3-0.3 0.1-0.7 0.2-0.4 0.1-0.8 0.2-0.4 0.1-0.7 0.2-0.4 0.1-0.9 0.2-0.3 0-0.7 0.1-0.4 0.1-0.8 0.1-0.4 0.1-0.8 0.1-0.4 0.1-0.8 0.1-0.4 0-0.8 0.1-0.4 0-0.8 0-0.5 0-0.9 0h-0.2q-0.1 0-0.2 0-0.1 0-0.2 0h-0.2q-0.4 0-0.7 0-0.4 0-0.9 0h-0.2q-0.1 0-0.2-0.1-0.1 0-0.1 0h-0.2q-0.3 0-0.6 0-0.5-0.1-0.9-0.1-0.3-0.1-0.6-0.1-0.4-0.1-0.8-0.2-0.3 0-0.7-0.1-0.3 0-0.7-0.1-0.4-0.1-0.8-0.2h-0.1q-0.2-0.1-0.5-0.2-0.5-0.1-1-0.2l-0.1-0.1h-0.2c-3.7-1.2-7.2-3.1-10.3-5.5l-0.9-0.7q-0.5-0.5-1-0.9c-1-0.8-2-1.6-2.9-2.7l-0.3-0.3c-2.7-2.6-24.6-24.6-36.3-36.4l-0.8-0.6h-0.1q-0.8-0.5-1.9-0.5c-2.1 0-3.8 1.7-3.8 3.8 0 1 0.4 1.9 1 2.6l34.2 34.2c0.4 0.4 0.6 0.9 0.5 1.5 0 0.5-0.3 1-0.8 1.3-5.3 3.7-11.6 5.6-18.2 5.6q-1.1 0-2.3-0.1c-7.7-0.5-14.7-4-22.6-11.3l-0.1-0.2-0.8-0.7-0.7 0.8c-1.8 2.2-3.9 4.1-6.3 5.7q-0.1 0.1-0.1 0.2c-2.7 1.8-5.6 3.2-8.7 4.1l-0.1 0.1h-0.1q-0.5 0.2-1 0.3-0.2 0.1-0.4 0.1h-0.1q-0.4 0.1-0.8 0.2-0.4 0.1-0.7 0.2-0.3 0-0.7 0.1-0.4 0.1-0.7 0.1-0.4 0.1-0.7 0.1-0.4 0.1-0.8 0.1-0.3 0-0.6 0.1h-0.2q-0.2 0-0.3 0h-0.1-0.2q-0.3 0-0.6 0v0.1h-0.1q-0.3 0-0.7 0-0.2 0-0.5 0h-0.1-0.1-0.1q-0.3 0-0.6 0-0.3 0-0.6 0h-0.1l-0.1-0.1q-0.3 0-0.6 0h-0.1-0.1q-0.1 0-0.3 0h-0.2q-0.4-0.1-0.7-0.1-0.4 0-0.8-0.1-0.3 0-0.6-0.1-0.4 0-0.7-0.1-0.4-0.1-0.7-0.1-0.3-0.1-0.7-0.2-0.4-0.1-0.8-0.2h-0.1q-0.2 0-0.4-0.1-0.5-0.1-1-0.3h-0.1l-0.2-0.1c-3-0.9-5.9-2.3-8.6-4.1q0-0.1-0.1-0.2h-0.1c-3.1-2.2-5.9-5-8.1-8.1v-0.1q-0.1-0.1-0.2-0.1c-1.8-2.7-3.2-5.6-4.1-8.6l-0.1-0.1v-0.1q-0.2-0.6-0.3-1.1 0-0.2-0.1-0.4v-0.1q-0.1-0.4-0.2-0.8-0.1-0.3-0.2-0.7 0-0.3-0.1-0.6 0-0.4-0.1-0.8-0.1-0.3-0.1-0.6 0-0.4-0.1-0.8 0-0.3-0.1-0.7v-0.2q0-0.1 0-0.3v-0.1-0.1q0-0.3 0-0.6v-0.1-0.1q-0.1-0.3-0.1-0.6 0-0.3 0-0.7v-0.1q0-0.3 0-0.6 0-0.4 0.1-0.7v-0.1q0-0.3 0-0.6v-0.2-0.1q0-0.1 0-0.3l0.1-0.2q0-0.3 0-0.6 0.1-0.4 0.1-0.8 0-0.3 0.1-0.6 0.1-0.4 0.1-0.8 0.1-0.3 0.1-0.7 0.1-0.3 0.2-0.6 0.1-0.5 0.2-0.9 0.1-0.2 0.1-0.5 0.1-0.5 0.3-1v-0.1l0.1-0.1c0.9-3.1 2.3-6 4.2-8.6q0-0.1 0.1-0.2c2.2-3.2 5-5.9 8.1-8.2h0.1q0.1-0.1 0.1-0.1c2.7-1.8 5.6-3.2 8.6-4.2h0.2l0.1-0.1q0.5-0.1 1-0.3 0.2 0 0.4-0.1h0.1q0.4-0.1 0.8-0.2 0.4-0.1 0.7-0.1 0.3-0.1 0.7-0.1 0.3-0.1 0.7-0.2 0.3 0 0.6-0.1 0.4 0 0.8-0.1 0.3 0 0.7 0h0.2q0.2-0.1 0.3-0.1h0.1 0.1q0.3 0 0.6 0h0.1 0.1q0.3 0 0.6 0 0.3 0 0.6 0h0.1 0.1z"/>
		</g>
		<g id="&lt;Group&gt;">
		</g>
		<g id="&lt;Group&gt;">
		</g>
		<path id="&lt;Compound Path&gt;" class="s2" d="m108.2 1942.5q0-0.3 0-0.7 0-0.5 0-0.9 0-0.2-0.1-0.4 0-0.2 0-0.4 0-0.3 0-0.6-0.1-0.5-0.1-0.9-0.1-0.3-0.1-0.6-0.1-0.4-0.2-0.9 0-0.3-0.1-0.6-0.1-0.4-0.2-0.8 0-0.4-0.1-0.8-0.1-0.3-0.2-0.6-0.1-0.5-0.3-1 0-0.2-0.1-0.3c-1.3-4.3-3.5-8.2-6.3-11.6h-0.1c-5.6-6.6-13.8-11.1-23-11.7-7.9-0.6-15.2 1.6-21.2 5.7-1.4 1-1.6 3.1-0.4 4.3l33.9 33.9c0.4 0.5 0.7 1.1 0.7 1.9 0 1.5-1.3 2.8-2.8 2.8-0.8 0-1.4-0.3-1.9-0.8h-0.1c0.1 0-34.8-34.8-36.2-36.2-1.8-1.9-3.3-3.2-5.1-4.7q-0.1 0-0.2-0.1-0.5-0.4-1-0.7-0.1-0.1-0.2-0.2-0.5-0.3-1-0.6-0.1-0.1-0.2-0.2-0.5-0.3-1-0.6-0.1-0.1-0.3-0.2-0.5-0.3-1-0.5-0.1-0.1-0.2-0.1-1.7-0.9-3.5-1.6-0.2-0.1-0.3-0.1-0.4-0.2-0.9-0.3-0.3-0.2-0.6-0.3-0.4-0.1-0.8-0.2-0.3-0.1-0.7-0.2-0.4-0.1-0.8-0.2-0.3-0.1-0.7-0.2-0.4 0-0.8-0.1-0.4-0.1-0.8-0.2-0.4 0-0.7-0.1-0.5 0-0.9-0.1-0.4 0-0.7-0.1-0.5 0-1 0-0.3-0.1-0.6-0.1-0.8 0-1.6 0-0.8 0-1.6 0-0.3 0-0.6 0.1-0.5 0-1 0-0.4 0.1-0.7 0.1-0.5 0.1-0.9 0.1-0.4 0.1-0.7 0.1-0.5 0.1-0.9 0.2-0.3 0.1-0.7 0.1-0.4 0.1-0.8 0.2-0.4 0.1-0.8 0.2-0.3 0.1-0.7 0.2-0.4 0.1-0.8 0.2-0.3 0.1-0.6 0.3-0.4 0.1-0.8 0.3-0.2 0-0.3 0.1-1.8 0.7-3.5 1.6-0.1 0-0.2 0.1-0.6 0.2-1.1 0.5-0.1 0.1-0.2 0.2-0.5 0.3-1 0.6-0.1 0.1-0.3 0.2-0.5 0.3-1 0.6-0.1 0.1-0.2 0.2-0.5 0.3-1 0.7 0 0.1-0.1 0.1-2.8 2.2-5.1 5c-1.9-2.3-4.1-4.3-6.6-6q-0.1-0.2-0.2-0.3c-2.5-1.6-5.2-3-8-4q0 0-0.1 0-0.7-0.2-1.5-0.5 0 0-0.1 0-0.8-0.2-1.6-0.4-0.1 0-0.1 0-0.7-0.2-1.4-0.3-0.3-0.1-0.6-0.1-0.5-0.1-0.9-0.2-0.4 0-0.8-0.1-0.4 0-0.9 0-0.2-0.1-0.4-0.1-0.1 0-0.2 0-0.4 0-0.8 0-0.3 0-0.7-0.1-0.3 0-0.7 0-0.4 0-0.7 0-0.4 0.1-0.8 0.1-0.3 0-0.7 0-0.1 0-0.2 0-0.3 0-0.6 0.1-0.3 0-0.6 0-0.4 0.1-0.9 0.1-0.3 0.1-0.6 0.1-0.4 0.1-0.8 0.2-0.3 0-0.7 0.1-0.3 0-0.7 0.1-0.4 0.1-0.8 0.2-0.2 0.1-0.5 0.2-0.5 0.1-1.1 0.3-0.1 0-0.2 0c-3.2 1-6.2 2.5-8.9 4.3q-0.1 0.1-0.2 0.2c-3.2 2.3-6.1 5.1-8.4 8.4q-0.1 0.1-0.1 0.2c-1.9 2.7-3.3 5.7-4.3 8.9q-0.1 0.1-0.1 0.2-0.2 0.5-0.3 1.1-0.1 0.2-0.1 0.5-0.1 0.4-0.2 0.8-0.1 0.4-0.2 0.7-0.1 0.3-0.1 0.7-0.1 0.4-0.1 0.8-0.1 0.3-0.1 0.6-0.1 0.4-0.1 0.8-0.1 0.4-0.1 0.7 0 0.3 0 0.5-0.1 0.2-0.1 0.3 0 0.3 0 0.7 0 0.4 0 0.7 0 0.4 0 0.7 0 0.4 0 0.8 0 0.3 0 0.7 0 0.4 0 0.7 0 0.1 0.1 0.3 0 0.2 0 0.5 0 0.3 0.1 0.7 0 0.4 0.1 0.8 0 0.3 0.1 0.6 0 0.4 0.1 0.8 0 0.4 0.1 0.7 0.1 0.3 0.2 0.7 0.1 0.4 0.2 0.8 0 0.3 0.1 0.5 0.1 0.6 0.3 1.1 0 0.1 0.1 0.2c1 3.2 2.4 6.2 4.3 8.9q0 0.1 0.1 0.2c2.3 3.3 5.2 6.1 8.4 8.4q0.1 0.1 0.2 0.2c2.7 1.8 5.7 3.3 8.9 4.3q0.1 0 0.2 0 0.6 0.2 1.1 0.3 0.3 0.1 0.5 0.2 0.4 0.1 0.8 0.2 0.4 0.1 0.7 0.1 0.4 0.1 0.7 0.1 0.4 0.1 0.8 0.2 0.3 0 0.6 0.1 0.5 0 0.9 0.1 0.3 0 0.6 0 0.3 0.1 0.6 0.1 0.1 0 0.2 0 0.4 0 0.7 0 0.4 0 0.8 0.1 0.3 0 0.7 0 0.4 0 0.7 0 0.4-0.1 0.7-0.1 0.4 0 0.8 0 0.1 0 0.2 0 0.3 0 0.5-0.1 0.4 0 0.7 0 0.4-0.1 0.8-0.1 0.3-0.1 0.7-0.1 0.4-0.1 0.7-0.2 0.4 0 0.7-0.1 0.4 0 0.7-0.1 0.4-0.1 0.9-0.2 0.2-0.1 0.5-0.2 0.5-0.1 1.1-0.3 0.1 0 0.2 0c3.2-1 6.2-2.5 8.9-4.3q0.1-0.1 0.2-0.2c2.4-1.7 4.5-3.7 6.4-5.9l0.2 0.2c6.6 6.1 14 11 23.2 11.6 7.8 0.6 15.2-1.6 21.2-5.7 1.4-1 1.6-3.1 0.4-4.3l-34.2-34.2c-0.5-0.5-0.7-1.2-0.7-1.9 0-1.6 1.2-2.8 2.8-2.8 0.8 0 1.5 0.3 2 0.8 0 0 36.6 36.7 36.6 36.7 1.3 1.5 2.6 2.4 4 3.6 3.4 2.9 7.3 5.1 11.6 6.4q0.1 0 0.3 0.1 0.5 0.2 1 0.3 0.3 0.1 0.6 0.1 0.4 0.1 0.8 0.2 0.4 0.1 0.8 0.2 0.3 0 0.6 0.1 0.5 0.1 0.9 0.1 0.3 0.1 0.6 0.1 0.5 0.1 0.9 0.1 0.3 0.1 0.6 0.1 0.2 0 0.4 0 0.2 0 0.4 0 0.5 0.1 0.9 0.1 0.4 0 0.7 0 0.2 0 0.4 0 0.2 0 0.5 0 0.4 0 0.9 0 0.4 0 0.8-0.1 0.4 0 0.8 0 0.4-0.1 0.9-0.1 0.4-0.1 0.8-0.1 0.4-0.1 0.8-0.1 0.4-0.1 0.8-0.2 0.4-0.1 0.8-0.2 0.4 0 0.8-0.1 0.4-0.1 0.9-0.3 0.3 0 0.6-0.1 0.5-0.2 0.9-0.3 0.3-0.1 0.6-0.2 0.5-0.2 1-0.4 0.2-0.1 0.5-0.2 0.5-0.2 1-0.4 0.2-0.1 0.4-0.2 0.5-0.2 1-0.5 0.2-0.1 0.4-0.1 0.5-0.3 1.1-0.6 0.1-0.1 0.2-0.2 0.6-0.3 1.2-0.6 0-0.1 0.1-0.2 0.6-0.3 1.2-0.7 0-0.1 0.1-0.1 0.6-0.4 1.2-0.9 0 0 0 0c2.3-1.8 4.4-3.8 6.1-6.1q0 0 0.1-0.1 0.4-0.5 0.8-1.1 0.1-0.1 0.1-0.1 0.4-0.6 0.8-1.2 0-0.1 0.1-0.2 0.3-0.5 0.6-1.1 0.1-0.1 0.2-0.2 0.3-0.6 0.6-1.1 0.1-0.2 0.1-0.4 0.3-0.5 0.5-1 0.1-0.2 0.2-0.4 0.3-0.5 0.5-1.1 0.1-0.2 0.1-0.4 0.2-0.5 0.4-1 0.1-0.3 0.2-0.6 0.1-0.5 0.3-0.9 0.1-0.3 0.2-0.7 0.1-0.4 0.2-0.9 0.1-0.3 0.2-0.7 0.1-0.4 0.1-0.8 0.1-0.4 0.2-0.8 0-0.4 0.1-0.8 0.1-0.5 0.1-0.9 0.1-0.4 0.1-0.8 0-0.4 0.1-0.8 0-0.4 0-0.9 0-0.4 0-0.8 0-0.3 0-0.5 0-0.2 0-0.4zm-117.6 18.5c-1.1 1.1-2.8 1.1-3.9 0l-32.4-32.3c-1.1-1.1-1.1-2.9 0-4 1.1-1.1 2.9-1.1 4 0l32.3 32.3c1.1 1.1 1.1 2.9 0 4z"/>
		<path id="Shape 1" fill-rule="evenodd" class="s1" d=""/>
	</g>
</svg>